<svg xmlns="http://www.w3.org/2000/svg" id="Ebene_1" data-name="Ebene 1" viewBox="19.37 38 775.4 304.35"><defs><clipPath id="clip-path"><path d="M266.52 269.46h10v5.92c0 4.93-.49 6.9-2 9.2a12.33 12.33 0 0 1-19.72 0c-1.48-2.13-2-4.6-2-9.2V235c0-5.75.33-7.56 2-10a12.08 12.08 0 0 1 19.72 0c1.48 2.13 2 4.27 2 8.71V235h23.67v-29.13a84.68 84.68 0 0 0-35.64-7.87c-24.32 0-36.48 9.36-36.81 28.43v56.67c0 18.74 12.65 28.76 36.32 28.76 14.29 0 23.17-2.46 36.15-10.35v-49.3h-33.69v17.25Zm107.8 13V302a61.79 61.79 0 0 1-32.53 9.2c-12.82 0-22.85-3.78-28.27-10.51-3.45-4.44-4.6-8.38-4.6-17.92v-27.28c0-9 1.15-13.47 4.76-17.91 5.26-6.74 15.29-10.52 28.11-10.52 12.32 0 22.67 3.95 28.26 10.52 3.45 3.95 4.27 7.56 4.27 17.91v18.25h-42.39v8.54c0 8.05 3.45 12.33 9.69 12.33s9.7-4.11 9.7-11.51v-.65Zm-23-23v-3.78c0-7.89-3.45-12-9.7-12-6.08 0-9.69 4.28-9.69 12v3.78Zm33 50.29h33v-16.6c-4.44-1.32-4.93-2.47-4.93-10.19v-17.61c0-9.2 3.78-13.47 11.67-13.47a34.19 34.19 0 0 1 3.78.33v-23.67a14.15 14.15 0 0 0-4.28-.82c-5.09 0-8.54 2.14-12 7.23l-.33.33v-6.74h-26.88v16.6c4.43 1.32 5.09 2.47 5.09 10.19v27.61c0 7.56-.66 8.87-5.09 10.19v16.6Zm48.15-81.19h27.28v5.76c6.9-5.26 12.32-7.24 19.06-7.24 7.07 0 12.82 2.47 18.9 8.06 7.06-5.1 15.44-8.06 22.84-8.06 7.72 0 15.28 3.46 19.56 9 2.79 3.45 3.78 7.23 3.78 13.15v36.48c0 4.93 1.15 6.58 5.09 7.4v16.6h-26.26c-1.48-4.28-1.81-6.58-1.81-15.78v-34.66c0-4.43-.33-6.9-1-8.87-1.31-3.29-4.6-5.26-8.87-5.26-3.12 0-5.1.49-8.88 2.8v37.79c0 4.93 1.15 6.58 5.1 7.4v16.6H481c-1.32-4.11-1.81-7.24-1.81-14.14V257c.16-8.05-3.12-11.83-9.7-11.83-2.63 0-4.76.66-8.05 2.3l-.82.5v33.33c0 9.53.33 10.51 4.93 11.83v16.6h-33v-16.6c3.94-1.15 4.93-3 5.09-7.73v-31.88c0-5.42-1-7.23-5.09-8.38v-16.6Zm195.88 81.19v-16.6c-3.94-1-4.93-2.47-4.93-7.56v-36.34c0-7.72-2.46-12.49-8.21-16.76-5.59-4.11-12.49-6.08-21.2-6.08-9.7 0-22.19 3.28-32.71 8.54v19.89h22.85v-4.11c0-5.1 3.12-8.22 8.21-8.22 5.92 0 8.06 3.45 8.06 12.66v1.48a15.82 15.82 0 0 1-2 .49l-7.56 2.63a65.37 65.37 0 0 0-6.4 2.3c-3.29 1.15-5.26 1.81-6.58 2.3-5.42 2.14-9 3.94-11.34 5.59-6.57 4.6-9.69 10.68-9.69 19.06 0 13.64 8.38 22.18 21.85 22.18 8.38 0 14-2.3 22.68-9.36v7.89Zm-27.93-24c-4.11 4.44-9 7.4-12.49 7.4a5.92 5.92 0 0 1-6.25-6.08c0-3.62 2.14-6.25 6.74-8.71l3.29-1.65c1.8-1 3.12-1.48 3.28-1.64l3.13-1.48c.32-.16 1.15-.66 2.3-1.15v13.31Zm36 7.4c4.44-1.32 5.1-2.47 5.1-10.19v-27.63c0-7.72-.66-8.87-5.1-10.19v-16.6h27.28V234l.33-.17c8.05-5.09 13.15-6.74 20.54-6.74 15.12 0 23.67 8.39 23.67 23v35.31c0 5.26 1.31 6.91 5.42 7.73v16.6h-26.45c-1.48-5.59-2-9.21-2-18.74v-32.37c.16-5.59-.16-7.56-1.31-9.53-1.48-3-4.93-4.77-8.71-4.77-3.46 0-6.91 1.48-10.69 4.27v36.81c0 5.26.83 6.41 4.93 7.73v16.6h-33v-16.6Zm152.83-64.59h-29.73v16.6c2.13.82 3 2 3 4.11a7.68 7.68 0 0 1-.33 2.63l-7.89 31.88-8.3-31.08a23.11 23.11 0 0 1-.66-4.11c0-2 1-3 3.29-3.45v-16.6h-32v16.6c2.79 1 3.61 2.14 5.25 6.74l20 60.64c-2 5.09-4.76 7.39-9.69 7.39a3.28 3.28 0 0 1-1.15-.16v17.58a39 39 0 0 0 8 .83c15.45 0 23-7.73 29.25-29.75l15.28-55.05c1.65-5.75 2.63-7.23 5.59-8.22v-16.6Z" style="fill: none; --darkreader-inline-fill:none;" data-darkreader-inline-fill=""/></clipPath><style>.cls-2{fill:#dda039}.cls-4{fill:#30383b}</style><style class="darkreader darkreader--sync" media="screen"/></defs><path class="cls-2" d="M142 264.53a15.64 15.64 0 1 0-15.48-15.64A15.56 15.56 0 0 0 142 264.53Z"/><path d="M200.86 308.46h-23.22v-11.83a57.43 57.43 0 0 1-35.39 11.83q-25.12 0-42.09-17.08T83.19 249q0-25.37 17-42.49t42.09-17.14q23.22 0 39.8 15.16T200.86 243m-84-19.55q-10.16 10.2-10.16 25.53t10.16 25.53q10.17 10.2 25.35 10.2t25.29-10.2q10.1-10.2 10.1-25.53t-10.1-25.53q-10.11-10.2-25.29-10.2t-25.35 10.2Z" style="fill: rgb(255, 204, 0); --darkreader-inline-fill:#ffd11a;" data-darkreader-inline-fill=""/><path class="cls-4" d="M93 170.27V75c0-21.62-10.3-36.15-34.46-36.15h-4.71C30.35 38.84 19.37 54.05 19.37 75v95.28H40v-39.7h32.25v39.7Zm-20.75-58.79H40V75c0-12.5 2.7-17.23 13.85-17.23h4.73c11.83 0 13.69 4.06 13.69 17.23v36.49Zm108.44-11.32c0-19.59-8.44-36.65-27.53-36.65a49.4 49.4 0 0 0-6.76.67l-18.75 3.38V39.69H107v95.1c0 21.62 10.31 36.32 34.29 36.32h5.07c24 0 34.29-14.7 34.29-36.32v-34.63Zm-20.61 34.63c0 13.18-2.19 17.23-13.68 17.23h-5.07c-11.65 0-13.68-4.05-13.68-17.23V83.1h18.75c11.83 0 13.68 3.72 13.68 17.06v34.63Zm98 2.37c0-40.71-44.6-22.13-44.6-39.53 0-12.5 1.86-14.19 15.54-14.19h27.54V64.52h-29.25c-22.12 0-34.46 8.28-34.46 33.11 0 37.67 44.43 18.75 44.43 39.53 0 12.67-1.69 14.19-15 14.19h-27.4v18.92h29.06c22.29 0 34.12-8.62 34.12-33.11Zm82.6-37.5c0-21.46-10.3-36-34.46-36h-4.9c-24 0-34.29 14.52-34.29 36V135c0 21.79 10 36.15 34.29 36.15h4.9c24.32 0 34.46-14.19 34.46-36.15V99.66ZM319.88 135c0 13.52-3.38 17.23-15.37 17.23H303c-11.82-.17-15.37-3.88-15.37-17.23V99.66c0-13 3.71-17.06 15.37-17.06h1.52c11.66 0 15.37 4.05 15.37 17.06V135Zm55.41 35.31V38h-20.61v132.27ZM463 64.52h-20.65v69.93c0 13.52-3.55 17.74-15.37 17.74h-1.52c-12-.17-15.54-4.39-15.54-17.74V64.52h-20.61v69.93c0 21.8 10.13 36.66 34.46 36.66h4.9c24.32 0 34.29-14.7 34.29-36.66V64.52Zm69.26 105.75v-18.92h-21.67c-11.48 0-13.17-4.23-13.17-17.23V83.61h34.8V64.52h-34.8V46.78h-20.61v87.34c0 24 9.8 36.15 32.77 36.15ZM266.52 269.46h10v5.92c0 4.93-.49 6.9-2 9.2a12.33 12.33 0 0 1-19.72 0c-1.48-2.13-2-4.6-2-9.2V235c0-5.75.33-7.56 2-10a12.08 12.08 0 0 1 19.72 0c1.48 2.13 2 4.27 2 8.71V235h23.67v-29.13a84.68 84.68 0 0 0-35.64-7.87c-24.32 0-36.48 9.36-36.81 28.43v56.67c0 18.74 12.65 28.76 36.32 28.76 14.29 0 23.17-2.46 36.15-10.35v-49.3h-33.69v17.25Zm107.8 13V302a61.79 61.79 0 0 1-32.53 9.2c-12.82 0-22.85-3.78-28.27-10.51-3.45-4.44-4.6-8.38-4.6-17.92v-27.28c0-9 1.15-13.47 4.76-17.91 5.26-6.74 15.29-10.52 28.11-10.52 12.32 0 22.67 3.95 28.26 10.52 3.45 3.95 4.27 7.56 4.27 17.91v18.25h-42.39v8.54c0 8.05 3.45 12.33 9.69 12.33s9.7-4.11 9.7-11.51v-.65Zm-23-23v-3.78c0-7.89-3.45-12-9.7-12-6.08 0-9.69 4.28-9.69 12v3.78Zm33 50.29h33v-16.6c-4.44-1.32-4.93-2.47-4.93-10.19v-17.61c0-9.2 3.78-13.47 11.67-13.47a34.19 34.19 0 0 1 3.78.33v-23.67a14.15 14.15 0 0 0-4.28-.82c-5.09 0-8.54 2.14-12 7.23l-.33.33v-6.74h-26.88v16.6c4.43 1.32 5.09 2.47 5.09 10.19v27.61c0 7.56-.66 8.87-5.09 10.19v16.6Zm48.15-81.19h27.28v5.76c6.9-5.26 12.32-7.24 19.06-7.24 7.07 0 12.82 2.47 18.9 8.06 7.06-5.1 15.44-8.06 22.84-8.06 7.72 0 15.28 3.46 19.56 9 2.79 3.45 3.78 7.23 3.78 13.15v36.48c0 4.93 1.15 6.58 5.09 7.4v16.6h-26.26c-1.48-4.28-1.81-6.58-1.81-15.78v-34.66c0-4.43-.33-6.9-1-8.87-1.31-3.29-4.6-5.26-8.87-5.26-3.12 0-5.1.49-8.88 2.8v37.79c0 4.93 1.15 6.58 5.1 7.4v16.6H481c-1.32-4.11-1.81-7.24-1.81-14.14V257c.16-8.05-3.12-11.83-9.7-11.83-2.63 0-4.76.66-8.05 2.3l-.82.5v33.33c0 9.53.33 10.51 4.93 11.83v16.6h-33v-16.6c3.94-1.15 4.93-3 5.09-7.73v-31.88c0-5.42-1-7.23-5.09-8.38v-16.6Zm195.88 81.19v-16.6c-3.94-1-4.93-2.47-4.93-7.56v-36.34c0-7.72-2.46-12.49-8.21-16.76-5.59-4.11-12.49-6.08-21.2-6.08-9.7 0-22.19 3.28-32.71 8.54v19.89h22.85v-4.11c0-5.1 3.12-8.22 8.21-8.22 5.92 0 8.06 3.45 8.06 12.66v1.48a15.82 15.82 0 0 1-2 .49l-7.56 2.63a65.37 65.37 0 0 0-6.4 2.3c-3.29 1.15-5.26 1.81-6.58 2.3-5.42 2.14-9 3.94-11.34 5.59-6.57 4.6-9.69 10.68-9.69 19.06 0 13.64 8.38 22.18 21.85 22.18 8.38 0 14-2.3 22.68-9.36v7.89Zm-27.93-24c-4.11 4.44-9 7.4-12.49 7.4a5.92 5.92 0 0 1-6.25-6.08c0-3.62 2.14-6.25 6.74-8.71l3.29-1.65c1.8-1 3.12-1.48 3.28-1.64l3.13-1.48c.32-.16 1.15-.66 2.3-1.15v13.31Zm36 7.4c4.44-1.32 5.1-2.47 5.1-10.19v-27.63c0-7.72-.66-8.87-5.1-10.19v-16.6h27.28V234l.33-.17c8.05-5.09 13.15-6.74 20.54-6.74 15.12 0 23.67 8.39 23.67 23v35.31c0 5.26 1.31 6.91 5.42 7.73v16.6h-26.45c-1.48-5.59-2-9.21-2-18.74v-32.37c.16-5.59-.16-7.56-1.31-9.53-1.48-3-4.93-4.77-8.71-4.77-3.46 0-6.91 1.48-10.69 4.27v36.81c0 5.26.83 6.41 4.93 7.73v16.6h-33v-16.6Zm152.83-64.59h-29.73v16.6c2.13.82 3 2 3 4.11a7.68 7.68 0 0 1-.33 2.63l-7.89 31.88-8.3-31.08a23.11 23.11 0 0 1-.66-4.11c0-2 1-3 3.29-3.45v-16.6h-32v16.6c2.79 1 3.61 2.14 5.25 6.74l20 60.64c-2 5.09-4.76 7.39-9.69 7.39a3.28 3.28 0 0 1-1.15-.16v17.58a39 39 0 0 0 8 .83c15.45 0 23-7.73 29.25-29.75l15.28-55.05c1.65-5.75 2.63-7.23 5.59-8.22v-16.6Z"/><g style="clip-path:url(#clip-path)"><path style="fill: rgb(227, 6, 19); --darkreader-inline-fill:#f92e3a;" d="M220.01 252.09v44.62h574.76v-44.62H596.4l-5.8 5.78h-34.16l-4.74-5.78H220.01z" data-darkreader-inline-fill=""/><path class="cls-2" d="M220.01 281.66v60.69h574.76v-60.69H220.01z"/></g><path class="cls-4" d="M200.86 308.46h-23.22v-11.83a57.43 57.43 0 0 1-35.39 11.83q-25.12 0-42.09-17.08T83.19 249q0-25.37 17-42.49t42.09-17.14q23.22 0 39.8 15.16T200.86 243m-84-19.55q-10.16 10.2-10.16 25.53t10.16 25.53q10.17 10.2 25.35 10.2t25.29-10.2q10.1-10.2 10.1-25.53t-10.1-25.53q-10.11-10.2-25.29-10.2t-25.35 10.2Z"/></svg>